<svg id="Layer_1" data-name="Layer 1" xmlns="http://www.w3.org/2000/svg" viewBox="0 0 686.02 197.27"><path d="M196.37,436.53v-.19h20.12q21.81.07,43.62.15c4.54,0,4.8-.28,5.07-4.91,0-.62.08-1.24.08-1.85.08-15.79.41-31.57.13-47.35-.16-8.83-.56-17.8-2.29-26.42-1.8-9-7.16-16.08-17.05-17.87A107.62,107.62,0,0,0,228.3,336q-40.23-.37-80.46-.11c-10.81.08-21.66.47-32.43,1.45-14.29,1.3-23.21,10.48-24.24,24.76a553.32,553.32,0,0,0,0,83.14c1,12.3,8.67,21.07,20.81,23.23a135.15,135.15,0,0,0,22.43,2.18c26.5.24,53,.07,79.52,0,2.27,0,4.53-.23,6.79-.39,1.9-.14,3-.95,3-3.1-.1-6.49-.12-13-.11-19.49,0-2.07-1-3-3-3.1-.93,0-1.86-.11-2.79-.11q-32,0-64.05.07c-8.77,0-17.54,0-26.3-.3-8.24-.27-10.67-2.79-11.49-11,0-.41-.09-.82-.09-1.23,0-20.21-.08-40.42.2-60.63.11-7.53,2.51-9.84,10-9.91q51.51-.49,103-.58c7.22,0,10.29,3.05,10.53,10.54.36,11.34.22,22.68.15,34,0,1.43-1.13,2.82-1.35,4.29-.54,3.5-1.91,7.34-1,10.49,1.23,4.32,5.82,2.82,9.15,2.63,4.46-.25,6.36-1.6,6.38-4.38,0-3.19.7-6.65-2.72-9-.74-.51-.92-2.2-.94-3.35-.16-10-.12-20-.38-30a75,75,0,0,0-1.28-12.6c-1.27-6.44-4.87-9.57-11.41-10.34a96,96,0,0,0-11.1-.75q-37.29-.06-74.58.07c-9.58.05-19.2,0-28.74.82-10,.83-14.39,5.79-14.57,15.79q-.54,30.17-.58,60.33a54.51,54.51,0,0,0,1.72,13.14c1.45,5.75,5.12,9.64,11.47,10,6.79.39,13.59.88,20.38.9,23.31.08,46.62-.06,69.94,0,2.06,0,4.76-.75,5.15,2.81.44,4.07-.57,5.23-5,5.26-16.19.14-32.38.46-48.58.36-14.32-.09-28.66-.42-43-1.1-6.4-.31-12.25-3.06-15.45-8.89A26,26,0,0,1,100,440.17c-.24-24.84-.07-49.69.1-74.54a35.27,35.27,0,0,1,1.48-8.2A13.66,13.66,0,0,1,112.29,347a81.53,81.53,0,0,1,16.81-2.13q40.07-.37,80.13-.15c10.3.05,20.64.34,30.89,1.29,6.89.63,12.2,4.43,14.06,11.63a41.35,41.35,0,0,1,1.55,9.12c.52,19.18.85,38.36,1.27,57.54.06,2.57-1.05,3.85-3.64,3.86-5.05,0-10.1.06-15.15.08q-30.48.12-61,.22c-13,0-26,0-39-.12-4.6-.06-5.81-1.17-5.89-5.74-.22-13.3-.17-26.61-.25-39.91,0-3,1.46-4.32,4.36-4.34,4.64,0,9.28-.12,13.92-.12q33.74,0,67.46,0c4.53,0,5.14.73,5.14,5.3,0,7.84-.15,15.68-.07,23.51,0,3.07-1.34,4.34-4.25,4.34-5.16,0-10.31,0-15.47,0q-25.07.13-50.13.28c-3.49,0-3.73-.67-3.87-5.69-.09-3,1.38-3.41,3.8-3.39,15.88.11,31.76.13,47.65.29a5,5,0,0,1,3.4,1.41c2.46,2.8,11.25,3.8,14,1.24a4.12,4.12,0,0,0,1.14-2.72c0-2.88-.16-5.77-.41-8.64a3.54,3.54,0,0,0-1.08-2.11c-2-1.78-10.29-1.38-12.41.21A7.92,7.92,0,0,1,201,394c-18.77.22-37.55.28-56.32.37-3.6,0-4.15.5-4.2,4.07-.09,5.57-.15,11.14-.15,16.71,0,4.8.31,5.22,5,5.24,11.44.05,22.89-.05,34.34-.08q23.5-.06,47-.11c4.67,0,5.71-.77,5.71-4.1q0-17.79,0-35.58c0-2.17-.17-4.33-.39-6.48s-1.29-3.57-3.75-3.68c-3.8-.17-7.6-.75-11.4-.76-13.62,0-27.23.08-40.85.17-14.85.11-29.7.09-44.54.46-6.71.17-7.62,1.21-7.77,8-.33,15.47-.52,30.94-.47,46.41,0,9.94,1.8,11.72,11.82,11.81C155.53,436.65,176,436.53,196.37,436.53Z" transform="translate(24.02 -298.35)"/><path d="M601.37,394.13c0,16.29,0,32.59,0,48.89,0,5-.68,5.73-5.71,5.86s-9.9,0-14.85,0c-2.09,0-3.86.48-3.91,2.92q-.17,9.42,0,18.85c0,2.55,1.39,3.91,4.16,3.84,9.28-.21,18.56-.18,27.83-.53a34.85,34.85,0,0,0,9-1.8c3.6-1.15,6.54-3.48,7.07-7.47a202.79,202.79,0,0,0,2-20.55c.31-11,0-22.07,0-33.11a8.93,8.93,0,0,1,3.35-7.6c2.73-2.18,5.32-4.53,8.09-6.66,1.92-1.49,2.27-2.75.19-4.38s-3.81-3.51-5.92-4.95c-4.24-2.87-5.46-7-5.48-11.76,0-8.76-.06-17.53-.25-26.3-.15-7-.37-14-.85-21-.38-5.56-3-9.83-8.47-11.84-1.82-.68-3.81-.88-5.7-1.39-3.44-.93-6.86-2-10.3-2.89a39.17,39.17,0,0,0-6.26-1.46c-3.49-.35-4.63.51-5,3.91a44.13,44.13,0,0,0-.14,9.26,4.39,4.39,0,0,0,2.74,3,13.52,13.52,0,0,0,10.69-1.62,9.11,9.11,0,0,1,13.8,6.46,60.92,60.92,0,0,1,.52,7.4c.16,13.41.32,26.82.34,40.23a16.06,16.06,0,0,0,5,12.19c3.34,3.24,3.26,3.83.08,7.27-.56.6-1.4,1-1.83,1.63-1.06,1.64-2.61,3.31-2.8,5.09-.53,4.91-.52,9.88-.61,14.82-.23,11.86-.21,23.72-.66,35.57-.24,6.29-2.16,8.16-8.55,8.74s-13,.72-19.46.85c-3.56.07-4.15-.91-4.27-4.5-.11-3.3,1.81-3.52,4.36-3.67q8.46-.49,16.9-1.46c2.89-.32,4.15-2.22,4.11-5.19-.07-5.67,0-11.34.08-17,.1-10.41.23-20.83.28-31.25,0-2.22.54-3.87,2.66-5.1s2.4-3.78.41-5.14c-2.72-1.86-3.21-4.26-3.18-7.18,0-3.09-.26-6.19-.27-9.28,0-12.27,0-24.55-.11-36.82-.06-5.32-1.21-6.45-6.56-6.81-4.52-.3-9.06-.24-13.59-.38-3.49-.11-4.8-1.08-4.84-4.26-.09-5.67.11-11.34.23-17,0-2.15,1.05-3.75,3.33-3.62,10.69.6,21.4,1,32,2.16a11.53,11.53,0,0,1,10.39,9.39,155.17,155.17,0,0,1,3,21.65c.69,12.14.65,24.32,1.14,36.48a8.5,8.5,0,0,0,2.31,4.78c3.26,3.58,6.84,6.86,10.21,10.34,2.65,2.74,2.58,4.22-.27,6.93-2.24,2.13-4.47,4.28-6.89,6.19-4.35,3.43-6.56,7.58-6.29,13.31.35,7.31.29,14.65.09,22-.22,7.92-.42,15.89-1.33,23.75-.9,7.7-4.33,14.28-12.57,16.3-12.16,3-24.36,4-36.42-.93a8,8,0,0,0-5.45.38c-4.07,1.65-3.81,5.45-3.69,9s1.72,5.58,5.22,5.63c2.92,0,5.85-.76,8.76-1.27,1.8-.32,3.56-1,5.37-1.16,8.71-.81,17.53-1,26.13-2.39,9.16-1.52,16.33-6.73,19.51-15.77a52.69,52.69,0,0,0,3-15.4c.47-13.29.36-26.6.29-39.9a9.77,9.77,0,0,1,3.45-7.85c4.49-4.1,8.88-8.32,13.19-12.6,2.58-2.57,2.5-4.39-.16-6.84-4.24-3.9-8.58-7.69-12.85-11.57a10.19,10.19,0,0,1-3.74-8.07c.06-13.41-.1-26.82-.28-40.23-.09-6.23-1-12.35-3.76-18-3.52-7.2-8.85-12.56-17.09-13.1-14-.94-28-1.15-42-1.68-2.52-.1-3.57,1.21-3.6,3.56,0,2.57,0,5.15,0,7.73,0,8.15-.05,16.3.1,24.45.11,5.5.84,6.11,6.38,6.26,4.64.13,9.29.07,13.92.28,4.14.19,4.31.33,4.33,4.6C601.4,361.53,601.37,377.83,601.37,394.13Z" transform="translate(24.02 -298.35)"/><path d="M36.21,374.13h.14c0-4,0-8.05,0-12.07s0-8.05.08-12.07c.12-4.77.61-5.25,5.47-5.33,5.05-.09,10.11,0,15.16-.07,2.44,0,4.29-1,4.26-3.8,0-5.67-.16-11.34-.24-17,0-2.37-1-4-3.52-4.27a93.54,93.54,0,0,0-10.43-.62c-7.42.15-14.88.11-22.22,1-9.35,1.14-13.22,5.52-14,14.85-.5,6.27-.68,12.57-.71,18.85-.05,8.66,0,17.33.35,26,.2,5.59-2.17,9.69-6.24,13.13-1.58,1.33-3.06,2.77-4.66,4.07-1.87,1.51-1.61,2.91,0,4.34s3.24,2.89,4.94,4.22a14.58,14.58,0,0,1,5.87,12.35c-.08,7.53-.16,15.06-.11,22.59,0,6.8,0,13.63.5,20.41.91,11.85,4.95,15.83,16.62,17.82a26.69,26.69,0,0,1,7.72,2.87A10,10,0,0,0,46,480.63c2.45-1.86,3.42-5.77,2.31-9.33-1.65-5.27-8-7.75-12.12-4.47-3.54,2.84-7.16,3.38-11.23,1.62s-5-5.3-5.07-9.15c-.23-14.75-.43-29.5-.43-44.25,0-4.77-.66-9-4.66-12.15a17.6,17.6,0,0,1-2.52-2.72c-1.4-1.69-1.25-3.45.63-4.45,5.11-2.73,6.26-7.33,6.29-12.52.07-11.76.1-23.52.18-35.28,0-3.92,0-7.84.25-11.75.18-3,1.23-5.69,4.63-6.54,8.43-2.09,17-1.95,25.52-1.11,1.12.11,2.87,1.8,2.9,2.79,0,1.31-1.16,2.85-2.21,3.9-.58.57-2,.4-3,.47-4.32.27-8.65.45-13,.79-5.62.43-6.55,1.39-6.64,7.06-.15,9.59-.16,19.18-.31,28.77-.09,6.6-.3,13.2-.49,19.79a4.26,4.26,0,0,1-3.16,4.42c-.83.26-2,1.25-2,1.85a3.39,3.39,0,0,0,1.67,2.51c3,1.22,3.73,3.45,3.72,6.41-.05,7.53,0,15.06.12,22.59.1,7.83.06,15.68.47,23.5.37,7.05,2.28,8.5,9.32,8.4,3.7-.06,7.41,0,11.12.07,2.71,0,3.85,1.74,3.91,4.21.1,4.54.27,9.08.08,13.6-.22,5.54-1.63,7.21-7.16,7a210.1,210.1,0,0,1-25.83-2c-9.2-1.46-13.77-6.5-14.94-15.68-1-8.06-1.5-16.21-1.75-24.34-.25-8.45.11-16.91.13-25.37,0-4.09-1.87-7.16-5-9.8A95.44,95.44,0,0,1-11,400.79c-1.71-1.87-1.57-3.84.51-5.62,2.75-2.34,5.33-4.87,8.06-7.23,3.21-2.77,5.17-6.05,5.12-10.44-.07-5.77-.15-11.55.07-17.32.4-10.91.45-21.88,1.71-32.7,1.06-9.1,6.4-13.86,15.6-14.94a218.69,218.69,0,0,1,23.74-1.22c2.24,0,4.72,1.22,6.68,2.5,2.2,1.44,4.15,2,6.63,1.07,4.07-1.54,5.42-3.9,5.14-9.4s-5.75-8.5-10.92-6.23a36.44,36.44,0,0,1-10,2.61C32.56,303,23.62,303.12,15,304.73c-9.08,1.68-15.87,7-18.07,16.53-1.2,5.2-2.46,10.49-2.68,15.78C-6.29,349-6.35,361-6.19,372.92c.08,6-2.49,10.21-6.73,13.91q-4.65,4.05-9.07,8.37c-2.57,2.52-2.75,3.89-.29,6.62,3.8,4.2,7.77,8.27,12,12.06a12.06,12.06,0,0,1,4.38,9.76c-.13,6.6-.19,13.2-.28,19.8-.14,10.54-.2,21.1,2.43,31.39,2.48,9.71,8.27,16.5,18.52,18.58C28.4,496.19,42.2,495.85,56,495c3.25-.2,4.78-1.55,4.8-4.66q.11-16.69.1-33.4c0-2.49-1.31-3.75-3.9-3.7-4.54.09-9.08,0-13.61.14-6.43.14-7.05-.41-7.2-6.91,0-.2,0-.41,0-.62Z" transform="translate(24.02 -298.35)"/><path d="M523.48,369.49v0c-6.29,0-12.59-.08-18.88,0-2.9.05-3.9-.95-3.85-4,.18-10.52.11-21.05.07-31.57,0-5.41-.58-6-6.09-6.09-4.85-.08-9.69.05-14.54.15-4.17.08-4.54.45-4.94,4.53-.08.82-.1,1.65-.1,2.47q.09,15,.21,30c0,4.17-.2,4.54-4.23,4.54q-12.84,0-25.68-.29c-1.23,0-2.45-.78-3.67-1.2-2.26-.76-4.52-2.12-6.78-2.13s-5.08,0-6.15,3.07c-1.36,3.83-.64,7.5.67,11.14a1,1,0,0,0,.74.49c3.83-.2,7.69-.29,11.5-.73,1.95-.23,3.8-1.55,5.73-1.61,10.2-.32,20.41-.37,30.62-.57,5.28-.1,5.95-.68,6-5.88,0-10.52-.1-21-.18-31.56,0-4,.69-4.53,4.62-4.05,3.32.42,3,2.85,3.07,5.09.13,9.28,0,18.57.36,27.84.33,8.82-.45,8.71,9.2,8.81,10.51.1,21,0,31.55,0,5.26,0,5.46.31,5.43,5.43L538,394c-.1,8.8-.1,8.77-8.95,8.72-8.25,0-16.49.06-24.73,0-2.71,0-3.63,1.11-3.68,3.67-.21,10.3-.52,20.61-.83,30.91,0,1.2.09,3-.59,3.5-3.92,2.85-2.56,6.78-2,10.2s4.05,3.49,6.78,3.5c2.94,0,7.07,1,8-2.82.7-3-.39-6.56-1-9.82-.34-2-1.7-3.82-1.79-5.76-.31-6.49-.38-13-.3-19.48.05-4.6.46-4.65,5.1-4.65,9.58,0,19.17-.18,28.76-.25,2.68,0,4-1.23,3.94-4,0-11.25.06-22.49,0-33.73,0-3.73-.94-4.47-4.7-4.48Z" transform="translate(24.02 -298.35)"/><path d="M383,369.59c-6.4,0-12.8-.08-19.19,0-2.92.05-3.95-1.07-3.92-4,.12-10.94,0-21.87,0-32.81,0-4-.52-4.68-4.61-4.81-5.26-.16-10.52-.05-15.77-.09-4.37,0-4.87.42-4.87,4.65q0,16.4,0,32.8c0,3.94-.58,4.5-4.47,4.43-8.25-.16-16.5-.29-24.75-.53a17,17,0,0,1-3.77-1c-2.24-.62-4.47-1.69-6.73-1.78-6.42-.26-7.26.72-7.37,7.18-.12,7.22.84,8.21,8,7.24,5.06-.68,10-2.26,15.11-2.55,9.26-.53,18.56-.33,27.84-.58,4.28-.12,4.86-.76,4.89-5,.09-11,.14-22.07,0-33.1,0-2.61.64-3.86,3.44-3.73,3.83.18,4.56,1.15,4.56,5.92,0,10.11-.09,20.22.23,30.31.19,5.86.54,5.92,6.48,5.93,11.55,0,23.1-.05,34.65,0,3.81,0,4.27.49,4.28,4.32,0,4.74-.14,9.49-.14,14.23,0,5-.6,5.8-5.6,5.85-8.55.08-17.11-.15-25.66-.07-5.25,0-5.65.6-6,5.93,0,.51,0,1,0,1.55-.22,9.07-.41,18.14-.69,27.21a6.05,6.05,0,0,1-.89,3.17c-2.54,3.56-1.56,7.54-1.44,11.37a3.16,3.16,0,0,0,2.25,2.07,80.68,80.68,0,0,0,10.66-.16,3.13,3.13,0,0,0,2.06-2.2c.26-3.74,1-7.62-2.06-10.84a5.42,5.42,0,0,1-1-3.42c-.11-6.8-.12-13.61-.08-20.42,0-4.52.39-4.71,5.05-4.74,9.49,0,19-.25,28.46-.28,3,0,4.26-1.14,4.22-4.23q-.17-16.87,0-33.73c0-2.92-1.1-4.15-4-4.12C395.78,369.64,389.38,369.59,383,369.59Z" transform="translate(24.02 -298.35)"/><path d="M474,385.7v.43h-16.4q-12.07,0-24.13-.05c-2.1,0-3.73.55-3.77,3-.09,6-.17,11.95-.2,17.93,0,3.28,1.66,4.8,5,4.82,9.38.07,18.77.27,28.15.4,4.42.06,4.49.13,4.52,4.5.06,10.83.2,21.66.23,32.49,0,2.68,1.13,4.09,3.82,4.11,5.56.06,11.13.13,16.7.09,2.69,0,4-1.24,4-4.23.1-10.21.45-20.42.79-30.62.06-1.61,0-3.87.94-4.68,3.15-2.68,2.54-6.08,2.6-9.41.05-2.62-1.39-4.12-3.94-4.2a63.42,63.42,0,0,0-9.25.24,3.36,3.36,0,0,0-2.29,2.33c-.29,4-1.66,8.21,2,11.64a4.74,4.74,0,0,1,.94,3.12c.07,7.94,0,15.88.06,23.83,0,2.4-.76,3.71-3.39,3.57-2.33-.12-4.37-.31-4.29-3.47.1-3.5,0-7,0-10.52,0-7.73.06-15.47.08-23.2,0-4.42-1.1-5.36-5.46-5.28-9.38.19-18.76.29-28.15.37-3.75,0-4.11-.61-4.24-5-.09-3.16,1.46-3.75,4.21-3.73q34.33.29,68.68.37c2.9,0,5.27.43,7.39,2.89,2.53,2.94,6,2,9.18.78,2.07-.76,3.39-2,3.42-4.26,0-2.47-.12-4.94-.23-7.41s-1.76-4-4.14-4.23c-2.79-.31-5.73-2-8.32,1a6.56,6.56,0,0,1-4.26,2.27C500.76,385.77,487.36,385.7,474,385.7Z" transform="translate(24.02 -298.35)"/><path d="M333.85,385.63v.53c-2.68,0-5.36,0-8,0-10.73.08-21.45.07-32.17.29-4.49.09-4.54.35-4.62,5-.08,5.26-.11,10.52-.13,15.78,0,3.83.36,4.35,4.21,4.45,9.69.25,19.38.36,29.07.48,3.91.05,4.18.36,4.17,4.21,0,11,.08,22.07.06,33.1,0,2.4,1,3.84,3.35,3.88,6.08.11,12.16.12,18.24.08,2.51,0,3.56-1.36,3.6-3.95.19-10.83.5-21.65.84-32.47a13.38,13.38,0,0,1,.85-3.21c.6-2,1.7-3.95,1.76-5.95.21-7.64-.25-8-7.88-8.11-2.3,0-5.28-.61-6.2,2.21-1.09,3.35-3,6.92.08,10.46a7,7,0,0,1,1.77,4c.17,8.34,0,16.69.15,25,0,2.19-.71,3.2-2.92,3.43-4.13.42-5-.26-5-4.37,0-.62,0-1.23,0-1.85,0-10.11,0-20.21,0-30.32,0-4.67-1.28-5.85-5.8-5.79-9.38.11-18.77.11-28.15.38-2.73.07-3.69-1-3.91-3.47-.37-4.17.42-5.18,4.69-5.18,23.41,0,46.82,0,70.23.2a7.55,7.55,0,0,1,5,2.74c1.45,1.82,2.78,2.54,5,2,1.59-.4,3.21-.76,4.83-1.06,2.62-.48,3.67-2.36,3.63-4.67-.06-3.52,1.81-7.55-2.24-10.21a2.67,2.67,0,0,0-.86-.34c-1.71-.41-3.41-.82-5.13-1.16a4,4,0,0,0-4.5,1.82,5.42,5.42,0,0,1-3.78,2C360.65,385.68,347.25,385.63,333.85,385.63Z" transform="translate(24.02 -298.35)"/></svg>